PathFileType	4	(X/Y/Z)	 s10c0402.trc
DataRate	CameraRate	NumFrames	NumMarkers	Units	OrigDataRate	OrigDataStartFrame	OrigNumFrames
200	200	4	49	mm	200	501	2000
Frame#	Time	racr			lacr			c7			jug			rlel			rdr			llel			ldr			s2			lic			ric			lasi			rasi			rpsi			lpsi			rgt			lgt			rth1			rth2			rth3			rth4			rlfc			rmfc			rsh1			rsh2			rsh3			rsh4			rlmal			rmmal			rcal			rtoe			rmt5			lth1			lth2			lth4			lth3			llfc			lmfc			llmal			lcal			lmt5			lsh1			lsh2			lsh3			lsh4			ltoe			SBIKE			LBIKE			RBIKE			
		X1	Y1	Z1	X2	Y2	Z2	X3	Y3	Z3	X4	Y4	Z4	X5	Y5	Z5	X6	Y6	Z6	X7	Y7	Z7	X8	Y8	Z8	X9	Y9	Z9	X10	Y10	Z10	X11	Y11	Z11	X12	Y12	Z12	X13	Y13	Z13	X14	Y14	Z14	X15	Y15	Z15	X16	Y16	Z16	X17	Y17	Z17	X18	Y18	Z18	X19	Y19	Z19	X20	Y20	Z20	X21	Y21	Z21	X22	Y22	Z22	X23	Y23	Z23	X24	Y24	Z24	X25	Y25	Z25	X26	Y26	Z26	X27	Y27	Z27	X28	Y28	Z28	X29	Y29	Z29	X30	Y30	Z30	X31	Y31	Z31	X32	Y32	Z32	X33	Y33	Z33	X34	Y34	Z34	X35	Y35	Z35	X36	Y36	Z36	X37	Y37	Z37	X38	Y38	Z38	X39	Y39	Z39	X40	Y40	Z40	X41	Y41	Z41	X42	Y42	Z42	X43	Y43	Z43	X44	Y44	Z44	X45	Y45	Z45	X46	Y46	Z46	X47	Y47	Z47	X48	Y48	Z48	X49	Y49	Z49	
501	2.5050	688.017927	1322.627832	32.576927	696.384285	1327.866160	-264.507600	653.409975	1377.582404	-115.358141	627.860304	1231.841888	-112.708899	538.650846	1089.197083	100.393741	623.922424	915.023356	4.098302	572.379772	1114.544992	-415.650717	651.570248	912.841395	-384.637507	126.421077	1230.396629	-215.639783	312.188157	1206.076144	-334.823960	273.763833	1220.354614	-41.148669	307.617780	1118.312839	-300.034785	258.071462	1131.049378	-62.047667	165.583432	1280.619121	-154.930076	195.695763	1278.866465	-263.244839	152.368052	1135.207404	-17.668296	179.217899	1093.975179	-393.594239	232.808008	1010.615408	8.346113	311.778047	970.122409	1.442169	356.996925	897.707837	-0.423050	335.494074	998.693190	-4.585187	443.470566	813.949304	-16.667277	438.179959	809.746243	-135.778167	361.896502	730.603679	4.878154	326.276588	650.998900	-13.976151	257.945190	599.285184	-20.800562	350.771854	637.710192	-40.409549	193.467088	518.560824	-43.797851	219.535824	535.804384	-123.391196	133.933874	499.581992	-91.998869	373.509153	461.360044	-78.105663	287.405866	439.780590	-19.206118	194.127175	961.496973	-406.511155	226.533796	883.022109	-388.509446	260.401066	889.457219	-376.002392	214.681951	795.487730	-380.229265	224.828553	682.897532	-360.432059	217.929085	672.715594	-248.085406	34.364186	349.331384	-382.642310	-20.051627	354.206170	-339.192628	72.854896	198.619432	-393.577282	141.335441	590.919802	-400.084382	131.281697	505.060612	-391.114726	78.117577	433.474061	-393.355678	158.724244	495.197465	-366.129127	146.967616	159.246745	-334.480325	-167.693659	823.850854	-218.256390	-78.232007	82.123351	-423.663050	-102.664226	80.566152	-24.312201	
502	2.5100	687.072272	1321.957090	34.018503	697.045565	1327.310385	-262.941164	653.674155	1377.555955	-114.239438	627.440593	1232.044698	-111.900688	537.372639	1088.793242	101.151086	623.878695	915.290830	3.948198	573.301095	1114.613482	-415.048912	651.742397	912.689050	-384.741227	126.390187	1231.615211	-212.595833	313.324663	1209.162994	-335.327388	274.724286	1221.317748	-40.538192	306.552631	1120.519320	-299.223326	258.684104	1131.478666	-60.306830	165.861013	1282.394186	-152.968555	195.383660	1281.294605	-261.154291	153.198642	1135.686983	-16.244789	178.683340	1096.719447	-392.252452	233.821869	1010.968003	9.235870	312.487975	969.820531	1.855193	357.160787	897.158090	-0.267685	336.357270	998.216183	-4.407677	442.697748	812.346642	-17.603872	436.297742	808.046490	-136.698641	362.233320	727.434325	4.393407	327.449149	647.417907	-14.448793	259.765828	594.895563	-21.035294	351.959389	634.513971	-41.180372	196.163144	513.019972	-43.718058	222.139009	530.571569	-123.494468	136.879731	493.575754	-91.962416	376.744108	457.505725	-77.961189	290.870191	435.240684	-19.072670	195.621852	963.152592	-404.811680	229.515213	885.418836	-386.623514	263.180547	892.545889	-374.032974	220.207043	798.258163	-378.911854	229.344880	684.874928	-359.056492	223.106410	674.099911	-246.900187	33.298391	354.170652	-382.208078	-21.207426	359.516594	-338.839759	69.656984	202.949417	-393.463122	145.067060	593.482999	-398.853382	133.759059	507.758552	-389.647615	79.576661	436.873771	-392.661344	160.738175	497.544253	-364.342479	143.015810	162.206401	-334.580989	-167.636064	823.852989	-218.265788	-78.211310	82.119012	-423.681335	-102.640361	80.525027	-24.319540	
503	2.5150	686.033554	1321.173384	35.469173	697.618959	1326.755571	-261.519446	653.899147	1377.447144	-112.905524	626.920866	1232.174948	-110.960436	535.514918	1088.481538	102.164207	623.643296	915.674372	3.854866	574.107903	1114.678050	-414.607507	651.867462	912.583412	-384.794315	125.835538	1232.911831	-210.466806	310.263655	1210.321516	-332.736023	275.509110	1221.912940	-40.025167	305.773443	1122.650774	-298.784863	259.300076	1131.863118	-59.217450	166.334247	1283.738952	-150.811391	194.868280	1283.372809	-259.053727	154.030897	1135.917621	-14.800493	178.178061	1099.109677	-390.915882	234.981250	1011.119471	10.291311	313.328248	969.325633	2.413218	357.457778	896.322196	-0.032486	337.101360	997.339677	-4.830776	442.021248	810.481898	-18.464566	434.477085	806.162428	-137.376714	362.469147	724.320944	4.047852	328.646993	643.996435	-14.858855	261.595321	590.553339	-21.131034	353.376431	631.269372	-41.688554	198.965442	507.558027	-43.739625	224.806232	525.398828	-123.663743	140.288200	487.493499	-92.406120	379.980048	453.452186	-77.757685	294.069674	430.685434	-18.969225	197.238330	964.693670	-403.166039	232.546505	887.623248	-384.650190	266.013260	895.382561	-372.006393	225.019013	800.265385	-377.080781	234.039741	686.721297	-357.758444	228.307496	675.628540	-245.630312	32.192806	358.936403	-381.787963	-22.436942	364.931856	-338.488068	66.512785	207.354038	-393.431334	149.024668	595.741832	-397.709512	136.302028	510.375698	-388.466714	81.046957	440.407367	-392.029580	162.749677	499.894272	-362.723347	139.279835	165.529145	-334.780642	-167.663898	823.866331	-218.264799	-78.222645	82.143939	-423.669296	-102.635069	80.529402	-24.315617	
504	2.5200	684.865782	1320.399684	36.965128	698.114331	1326.174707	-260.117729	653.925015	1377.298047	-111.816978	626.451747	1232.218818	-110.198660	534.168380	1087.733394	102.801660	623.278755	916.097461	3.634243	574.946287	1114.745932	-414.292429	651.925809	912.458625	-384.788196	124.782293	1233.981251	-209.220882	309.183410	1212.104869	-331.809799	276.121907	1222.340433	-39.410383	304.705542	1124.330349	-297.962725	259.922083	1132.148427	-58.177015	166.011734	1283.618036	-147.133275	194.122039	1285.217224	-256.957778	154.841109	1135.940331	-13.350107	177.626393	1101.115021	-389.475087	236.335936	1010.997615	11.437997	314.256845	968.630987	2.875765	357.824416	895.420148	0.207119	338.107466	996.517791	-4.491155	441.374850	808.432097	-19.348799	432.656442	804.081132	-137.878725	362.485389	721.339886	3.738741	329.691303	640.484148	-15.052019	263.395439	586.223582	-21.186174	354.508139	628.288932	-42.063204	201.557107	502.160016	-43.616606	227.298136	520.132247	-123.674044	143.141957	481.680705	-92.299798	383.154701	449.121631	-77.610469	297.252935	425.866258	-18.817952	198.946895	966.156964	-401.405719	235.564562	889.643163	-382.730591	268.843964	898.080095	-370.094974	228.951303	801.742793	-374.495889	238.966530	688.612935	-356.531273	233.250823	677.129099	-244.378724	31.175328	363.812417	-381.403427	-23.589567	370.430464	-338.184573	63.380365	211.803604	-393.404561	153.106129	598.010309	-396.724818	138.798034	512.904544	-387.283923	82.396885	443.917704	-391.433775	164.746859	502.046887	-361.240294	135.503121	168.864337	-334.835084	-167.633728	823.853342	-218.269769	-78.221374	82.140233	-423.664786	-102.651216	80.593117	-24.314898	
